<svg xmlns="http://www.w3.org/2000/svg" width="1200" height="630" viewBox="0 0 1200 630" role="img" aria-labelledby="title desc">
  <title id="title">Dragon Ball Sociogram social preview</title>
  <desc id="desc">Abstract Otaku Data Viz network map preview for the Dragon Ball Sociogram project page.</desc>
  <defs>
    <pattern id="dots" width="22" height="22" patternUnits="userSpaceOnUse">
      <circle cx="2" cy="2" r="1.4" fill="#090b09" opacity=".22"/>
    </pattern>
    <filter id="shadow" x="-20%" y="-20%" width="140%" height="140%">
      <feDropShadow dx="10" dy="10" stdDeviation="0" flood-color="#090b09" flood-opacity=".18"/>
    </filter>
  </defs>
  <rect width="1200" height="630" fill="#fbf5e8"/>
  <rect width="1200" height="630" fill="url(#dots)" opacity=".9"/>
  <path d="M0 96H1200M0 534H1200M96 0V630M1104 0V630" stroke="#090b09" stroke-width="4"/>
  <g stroke="#090b09" stroke-width="7" stroke-linecap="round" opacity=".72">
    <path d="M665 285 790 195 945 260"/>
    <path d="M665 285 785 410 990 382"/>
    <path d="M665 285 535 175 390 230"/>
    <path d="M665 285 508 422 336 360"/>
    <path d="M535 175 508 422 790 195 785 410"/>
    <path d="M390 230 336 360"/>
    <path d="M945 260 990 382"/>
  </g>
  <g filter="url(#shadow)">
    <circle cx="665" cy="285" r="48" fill="#ffb000" stroke="#090b09" stroke-width="6"/>
    <circle cx="790" cy="195" r="32" fill="#67ec7b" stroke="#090b09" stroke-width="5"/>
    <circle cx="945" cy="260" r="28" fill="#bf7cff" stroke="#090b09" stroke-width="5"/>
    <circle cx="785" cy="410" r="35" fill="#56b8ff" stroke="#090b09" stroke-width="5"/>
    <circle cx="990" cy="382" r="24" fill="#ff5a5f" stroke="#090b09" stroke-width="5"/>
    <circle cx="535" cy="175" r="34" fill="#ff79c7" stroke="#090b09" stroke-width="5"/>
    <circle cx="390" cy="230" r="26" fill="#ffe46e" stroke="#090b09" stroke-width="5"/>
    <circle cx="508" cy="422" r="31" fill="#b3bcc7" stroke="#090b09" stroke-width="5"/>
    <circle cx="336" cy="360" r="24" fill="#67ec7b" stroke="#090b09" stroke-width="5"/>
  </g>
  <g fill="#090b09">
    <text x="92" y="145" font-family="Impact, Arial Black, sans-serif" font-size="88" letter-spacing="0">DRAGON BALL</text>
    <text x="92" y="232" font-family="Impact, Arial Black, sans-serif" font-size="88" letter-spacing="0">SOCIOGRAM</text>
    <text x="96" y="306" font-family="Consolas, Menlo, monospace" font-size="24" font-weight="800">Character relationships, rivalries,</text>
    <text x="96" y="340" font-family="Consolas, Menlo, monospace" font-size="24" font-weight="800">families, mentors, and alliances</text>
    <text x="96" y="496" font-family="Consolas, Menlo, monospace" font-size="22" font-weight="900">OTAKU DATA VIZ</text>
  </g>
  <rect x="92" y="388" width="280" height="58" fill="#090b09"/>
  <text x="116" y="426" font-family="Consolas, Menlo, monospace" font-size="20" font-weight="900" fill="#fbf5e8">INTERACTIVE MAP</text>
</svg>
