<svg xmlns="http://www.w3.org/2000/svg" width="1200" height="630" viewBox="0 0 1200 630" role="img" aria-labelledby="title desc">
  <title id="title">Manga and Anime Timeline social preview</title>
  <desc id="desc">Abstract Otaku Data Viz timeline preview for the Manga and Anime Evolution project page.</desc>
  <defs>
    <pattern id="dots" width="22" height="22" patternUnits="userSpaceOnUse">
      <circle cx="2" cy="2" r="1.4" fill="#090b09" opacity=".2"/>
    </pattern>
  </defs>
  <rect width="1200" height="630" fill="#fbf5e8"/>
  <rect width="1200" height="630" fill="url(#dots)" opacity=".9"/>
  <path d="M0 96H1200M0 534H1200M96 0V630M1104 0V630" stroke="#090b09" stroke-width="4"/>
  <g fill="#090b09">
    <text x="92" y="145" font-family="Impact, Arial Black, sans-serif" font-size="86">MANGA &amp;</text>
    <text x="92" y="232" font-family="Impact, Arial Black, sans-serif" font-size="86">ANIME</text>
    <text x="92" y="319" font-family="Impact, Arial Black, sans-serif" font-size="86">TIMELINE</text>
    <text x="96" y="386" font-family="Consolas, Menlo, monospace" font-size="23" font-weight="800">Landmark titles, creators, studios,</text>
    <text x="96" y="420" font-family="Consolas, Menlo, monospace" font-size="23" font-weight="800">adaptations, eras, and global hits</text>
    <text x="96" y="496" font-family="Consolas, Menlo, monospace" font-size="22" font-weight="900">OTAKU DATA VIZ</text>
  </g>
  <g transform="translate(540 130)">
    <path d="M0 360H560" stroke="#090b09" stroke-width="6"/>
    <g stroke="#090b09" stroke-width="4">
      <path d="M25 360V40"/><path d="M135 360V40"/><path d="M245 360V40"/><path d="M355 360V40"/><path d="M465 360V40"/>
    </g>
    <g stroke="#090b09" stroke-width="6" stroke-linecap="round">
      <path d="M18 92H165" stroke="#f0b429"/>
      <path d="M72 162H312" stroke="#2d7dd2"/>
      <path d="M186 238H430" stroke="#db4c9f"/>
      <path d="M305 118H535" stroke="#2f9e68"/>
      <path d="M398 304H552" stroke="#8b5bd6"/>
    </g>
    <g stroke="#090b09" stroke-width="5">
      <circle cx="42" cy="92" r="18" fill="#f0b429"/>
      <circle cx="206" cy="162" r="22" fill="#2d7dd2"/>
      <circle cx="298" cy="238" r="24" fill="#db4c9f"/>
      <circle cx="424" cy="118" r="25" fill="#2f9e68"/>
      <circle cx="492" cy="304" r="20" fill="#8b5bd6"/>
    </g>
    <g fill="#090b09" font-family="Consolas, Menlo, monospace" font-size="18" font-weight="900">
      <text x="0" y="395">1900</text>
      <text x="210" y="395">1960</text>
      <text x="430" y="395">2026</text>
    </g>
  </g>
  <rect x="92" y="446" width="258" height="58" fill="#090b09"/>
  <text x="116" y="484" font-family="Consolas, Menlo, monospace" font-size="20" font-weight="900" fill="#fbf5e8">INTERACTIVE</text>
</svg>
