<?xml version="1.0" encoding="UTF-8"?>
<svg id="Layer_1" data-name="Layer 1" xmlns="http://www.w3.org/2000/svg" viewBox="0 0 265.2 226.76">
  <g id="Generative_Object_0_0_" data-name="Generative Object (0, 0)">
    <path d="M59.38,39.49l-.56,7.3c2.09-3.22,2.26-4.54,2.76-8.41-17.66-7.81-26.51,2-26.51,2l3.23-11.38c6.61-6.83,15.91-7.3,25-4.54l-.54,7.81c1.76-3.63,2.5-6.21,3.41-9.44-16.03-7.41-27.03,2.95-27.03,2.95l3.93-15.21C44.83,3.8,52.45-.55,59.21.06l13.05,1.16c3.99.36,8.47,4.54,12.21,6.93,1.26-3.48,2.86-5.54,6.73-5.67l153.57,8.83c3.77.22,9.92,4.45,9.05,8.52l-6.87,32.01-29.05,134.49c-1.83,8.46-7.82,13.76-16.9,12.79l-9.77-1.04-12.05-.97-12.98-1.05-11.98-1.01-11-.95-11.99-1.02-11.99-.99-12-.97-12.98-1.06-11.99-.98-12-.98-11.96-.96-17.05-1.65,31.73-128.62,3.9-16.75c1.17-5.01,2.78-9.7,1.88-15.31l-13.72,55.94s-20.94,87.19-21.44,89.15l-3.84,12.07-8.85-11.48c-2.03-2.85-7.18-3.18-10.45-3.86-7.4-1.54-12.19.19-19.52,5.05l21.07-81.11c7.22-7.64,18.17-8.81,27.85-3.7l4.07-16.93c-8.47-4.62-18.06-4.24-26.66,1.23l2.71-11.29c6.45-7.16,18.45-7.72,26.29-3.83l-2.02,8.07c2.75-2.51,3.02-5.55,3.23-9.45-8.48-4.19-16.42-3.69-26.08,1.07l2.99-12.49s9.03-7.78,24.94-3.75ZM142.61,120.68l20.85-92.66-59.2-3.67c-3-.19-5.37,1.7-5.64,4.89l-21.08,86.44,65.07,4.99ZM227.74,36.53c.54-2.38-1.11-4.6-3.64-4.76l-57.02-3.56-16.07,71.65,61.99,4.51,14.74-67.85ZM166.17,122.51l3.73-17.55-19.71-1.33-3.82,17.36,19.8,1.52ZM197.41,177.08l14.78-68.91-38.5-2.97-15.01,69.09,38.73,2.79ZM154.91,173.86l10.4-47.68-88.66-6.99-9.74,40.27c-.56,2.32-.69,4.46-.05,7.3l88.04,7.1Z"/>
    <path d="M204.46,204.18l10.86,22.06-194.91-17.01c-4.45-.39-8.66-3.59-10.36-6.85l-8.02-15.36c-1.7-3.26-3.05-9.16-.94-12.31,3.1-4.64,7.19-5.78,12.85-6.03,2.64-.12,5.29.17,7.84.84l6.98,1.84,10.5,14.55-15.83-1.41-10.22-.74.45,5.15,190.82,15.27Z"/>
    <path d="M223.89,175.28l32.98-152.63,7.24,19.45c.95,2.56,1.4,6.78.83,9.85l-25.19,135.56"/>
    <path d="M239.84,190.77l-5.58,27c-1.45,7.03-11.51,10.66-17.09,8.25l-10.8-22.36c4.84-1.48,11.03-3.97,12.42-9.24l4.55-17.33"/>
    <path d="M48.85,84.26c-4.87-1.45-10.29-3.7-14.19-2.11l-11.49,4.69,3.58-12.64c.52-1.83,9.63-6.94,15.58-5.73l10.2,2.08-3.68,13.71Z"/>
  </g>
</svg>