<svg xmlns="http://www.w3.org/2000/svg" width="1200" height="630" viewBox="0 0 1200 630" role="img" aria-labelledby="title desc">
  <title id="title">Otaku Data Viz social preview</title>
  <desc id="desc">Editorial-style social preview for Otaku Data Viz with abstract maps, timelines, and treemaps.</desc>
  <defs>
    <pattern id="dots" width="22" height="22" patternUnits="userSpaceOnUse">
      <circle cx="2" cy="2" r="1.4" fill="#090b09" opacity=".2"/>
    </pattern>
  </defs>
  <rect width="1200" height="630" fill="#fbf5e8"/>
  <rect width="1200" height="630" fill="url(#dots)"/>
  <path d="M0 96H1200M0 534H1200M96 0V630M1104 0V630" stroke="#090b09" stroke-width="4"/>
  <g fill="#090b09">
    <text x="92" y="154" font-family="Impact, Arial Black, sans-serif" font-size="92">OTAKU</text>
    <text x="92" y="248" font-family="Impact, Arial Black, sans-serif" font-size="92">DATA VIZ</text>
    <text x="96" y="326" font-family="Consolas, Menlo, monospace" font-size="24" font-weight="900">Anime, manga, gaming, and fandom</text>
    <text x="96" y="362" font-family="Consolas, Menlo, monospace" font-size="24" font-weight="900">explored through interactive data stories</text>
  </g>
  <g transform="translate(600 120)" stroke="#090b09" stroke-width="5">
    <rect x="0" y="0" width="190" height="150" fill="#f0b429"/>
    <rect x="208" y="0" width="220" height="70" fill="#2d7dd2"/>
    <rect x="208" y="88" width="220" height="62" fill="#db4c9f"/>
    <path d="M35 265H430" stroke-width="7"/>
    <circle cx="70" cy="265" r="26" fill="#ffb000"/>
    <circle cx="190" cy="220" r="24" fill="#67ec7b"/>
    <circle cx="312" cy="300" r="24" fill="#56b8ff"/>
    <path d="M70 265 190 220 312 300 410 248" fill="none" stroke-width="6"/>
  </g>
  <rect x="96" y="440" width="360" height="62" fill="#090b09"/>
  <text x="122" y="481" font-family="Consolas, Menlo, monospace" font-size="22" font-weight="900" fill="#fbf5e8">INTERACTIVE FAN DATA</text>
</svg>
