<?xml version="1.0" encoding="UTF-8"?>
<svg id="Layer_1" data-name="Layer 1" xmlns="http://www.w3.org/2000/svg" viewBox="0 0 512 512">
  <path d="M469.63,471.91H138.4c-15.74,0-28.5-12.76-28.5-28.5V68.59c0-15.74,12.76-28.5,28.5-28.5h331.22c15.74,0,28.5,12.76,28.5,28.5v374.82c0,15.74-12.76,28.5-28.5,28.5ZM296.94,94.2h-133.04c-6.67,0-12.09,5.41-12.09,12.09v195.6h145.13V94.2ZM457.38,104.67c0-5.78-4.69-10.47-10.47-10.47h-137.63v152.83h148.1V104.67ZM457.38,405.15v-146.37h-94.23v158.46h82.14c6.68,0,12.09-5.41,12.09-12.09ZM350.43,314.44h-198v89.68c0,7.25,5.87,13.12,13.12,13.12h184.88v-102.8ZM350.43,261.37h-38.77v39.74h38.77v-39.74Z"/>
  <path d="M13.87,275.06v182.93c0,7.69,6.23,13.92,13.92,13.92h64.76c7.69,0,13.92-6.23,13.92-13.92V54.01c0-7.69-6.23-13.92-13.92-13.92H27.79c-7.69,0-13.92,6.23-13.92,13.92v48.31h52.18c1.14,0,2.06.92,2.06,2.06v3.24c0,1.14-.92,2.06-2.06,2.06H13.87v33.99h52.18c1.14,0,2.06.92,2.06,2.06v3.24c0,1.14-.92,2.06-2.06,2.06H13.87v33.99h52.18c1.14,0,2.06.92,2.06,2.06v3.24c0,1.14-.92,2.06-2.06,2.06H13.87v33.99h52.18c1.14,0,2.06.92,2.06,2.06v3.24c0,1.14-.92,2.06-2.06,2.06H13.87v33.99h52.18c1.14,0,2.06.92,2.06,2.06v3.24c0,1.14-.92,2.06-2.06,2.06H13.87Z"/>
</svg>